HIERARCHY
ROOT Hips
{
	OFFSET	0.00	0.00	0.00
	CHANNELS 6 Xposition Yposition Zposition Zrotation Xrotation Yrotation
	JOINT LeftUpLeg
	{
		OFFSET	 0.126116	-0.014019	-0.065224
		CHANNELS 3 Zrotation Xrotation Yrotation
		JOINT LeftLeg
		{
			OFFSET	 0.000000	 0.000000	 0.569914
			CHANNELS 3 Zrotation Xrotation Yrotation
			JOINT LeftFoot
			{
				OFFSET	 0.000000	 0.000000	 0.544423
				CHANNELS 3 Zrotation Xrotation Yrotation
				JOINT LeftToeBase
				{
					OFFSET	 0.000000	 0.000000	 0.207117
					CHANNELS 3 Zrotation Xrotation Yrotation
					End Site
					{
						OFFSET	 0.000000	 0.000000	 0.207117
					}
				}
			}
		}
	}
	JOINT RightUpLeg
	{
		OFFSET	-0.124023	-0.008373	-0.065224
		CHANNELS 3 Zrotation Xrotation Yrotation
		JOINT RightLeg
		{
			OFFSET	 0.000000	 0.000000	 0.570047
			CHANNELS 3 Zrotation Xrotation Yrotation
			JOINT RightFoot
			{
				OFFSET	 0.000000	 0.000000	 0.544354
				CHANNELS 3 Zrotation Xrotation Yrotation
				JOINT RightToeBase
				{
					OFFSET	 0.000000	 0.000000	 0.207540
					CHANNELS 3 Zrotation Xrotation Yrotation
					End Site
					{
						OFFSET	 0.000000	 0.000000	 0.207540
					}
				}
			}
		}
	}
	JOINT Spine
	{
		OFFSET	 0.000184	-0.007763	 0.117403
		CHANNELS 3 Zrotation Xrotation Yrotation
		JOINT Spine1
		{
			OFFSET	 0.000000	 0.000000	 0.137269
			CHANNELS 3 Zrotation Xrotation Yrotation
			JOINT Spine2
			{
				OFFSET	 0.000000	 0.000000	 0.156879
				CHANNELS 3 Zrotation Xrotation Yrotation
				JOINT LeftShoulder
				{
					OFFSET	 0.080501	-0.002496	 0.160144
					CHANNELS 3 Zrotation Xrotation Yrotation
					JOINT LeftArm
					{
						OFFSET	 0.000000	 0.000000	 0.164363
						CHANNELS 3 Zrotation Xrotation Yrotation
						JOINT LeftForeArm
						{
							OFFSET	 0.000000	 0.000000	 0.364576
							CHANNELS 3 Zrotation Xrotation Yrotation
							JOINT LeftHand
							{
								OFFSET	 0.000000	 0.000000	 0.360812
								CHANNELS 3 Zrotation Xrotation Yrotation
								JOINT LeftHandIndex1
								{
									OFFSET	 0.000000	 0.000000	 0.086006
									CHANNELS 3 Zrotation Xrotation Yrotation
									JOINT LeftHandIndex2
									{
										OFFSET	 0.000000	 0.000000	 0.047236
										CHANNELS 3 Zrotation Xrotation Yrotation
										JOINT LeftHandIndex3
										{
											OFFSET	-0.004284	-0.000551	 0.038166
											CHANNELS 3 Zrotation Xrotation Yrotation
											End Site
											{
												OFFSET	-0.004284	-0.000551	 0.038166
											}
										}
									}
								}
							}
						}
					}
				}
				JOINT Neck
				{
					OFFSET	 0.000000	 0.000000	 0.176489
					CHANNELS 3 Zrotation Xrotation Yrotation
					JOINT Head
					{
						OFFSET	 0.000000	-0.001747	 0.077940
						CHANNELS 3 Zrotation Xrotation Yrotation
						End Site
						{
							OFFSET	 0.000000	-0.001747	 0.077940
						}
					}
				}
				JOINT RightShoulder
				{
					OFFSET	-0.080363	 0.000306	 0.159706
					CHANNELS 3 Zrotation Xrotation Yrotation
					JOINT RightArm
					{
						OFFSET	 0.000000	 0.000000	 0.164196
						CHANNELS 3 Zrotation Xrotation Yrotation
						JOINT RightForeArm
						{
							OFFSET	 0.000000	 0.000000	 0.365611
							CHANNELS 3 Zrotation Xrotation Yrotation
							JOINT RightHand
							{
								OFFSET	 0.000000	 0.000000	 0.360648
								CHANNELS 3 Zrotation Xrotation Yrotation
								JOINT RightHandIndex1
								{
									OFFSET	 0.000000	 0.000000	 0.069977
									CHANNELS 3 Zrotation Xrotation Yrotation
									JOINT RightHandIndex2
									{
										OFFSET	 0.000000	 0.000000	 0.052305
										CHANNELS 3 Zrotation Xrotation Yrotation
										JOINT RightHandIndex3
										{
											OFFSET	 0.009002	-0.000782	 0.042196
											CHANNELS 3 Zrotation Xrotation Yrotation
											End Site
											{
												OFFSET	 0.009002	-0.000782	 0.042196
											}
										}
									}
								}
							}
						}
					}
				}
			}
		}
	}
}
MOTION
Frames:    8
Frame Time: 0.03333334
 2.889061	-0.002402	-0.150056	 69.975000	-2.266176	-1.158005	 7.271554	 20.259790	-176.798500	-3.572351	-11.632450	 1.472926	 3.551310	 84.332790	-0.210077	-2.304490	 39.423460	-0.260280	 4.952311	-35.664230	-177.884000	 1.271208	-43.547550	 5.224123	 109.497300	 89.840520	-103.662900	 2.371540	 30.984990	 0.057210	 35.522740	 3.518311	 2.341590	-1.141267	-1.515962	 0.784872	-1.174796	-4.004052	-0.633557	-91.776180	 78.527400	-180.000000	 35.629790	 60.565100	-53.698620	-6.956979	-6.556973	-38.386340	-2.472473	-3.775013	-5.813421	-3.812334	 37.924440	-2.927599	-2.450526	 36.184240	 0.754587	-1.378229	 35.397820	-2.634230	 1.217912	 2.157319	-4.953331	 1.002010	-9.168918	 3.430297	 89.782100	 78.203870	-180.000000	-37.967640	 72.028640	 35.444060	-2.236115	-7.901629	 24.598080	-7.088215	-4.448380	 10.116290	 6.437017	 35.671460	-0.771858	 2.830251	 35.756010	-7.813440	-2.350882	 35.473990	 5.254307
 2.911989	-0.011567	-0.150950	 70.194200	-2.072924	-1.249492	 7.351858	 21.255100	-176.932300	-3.517822	-11.628800	 1.501673	 3.860086	 84.432750	-0.391115	-2.290722	 40.633430	-0.292743	 5.238506	-35.948760	-177.595600	 0.319571	-40.882320	 4.402063	 136.765000	 89.690350	-131.269300	 2.367285	 31.706940	 0.073523	 34.487420	 3.386550	 2.269572	-1.170889	-1.580974	 0.751118	-1.187332	-4.058781	-0.651530	-91.776180	 78.527400	-180.000000	 35.939590	 60.505340	-54.229570	-6.255851	-7.288487	-39.940530	-2.018835	-5.123791	-5.899908	-3.812334	 37.924440	-2.927599	-2.450526	 36.184240	 0.754587	-1.378229	 35.397820	-2.634230	 1.226144	 2.176370	-4.968780	 1.019497	-9.267474	 3.663295	 89.782120	 78.203870	 180.000000	-37.376330	 72.389450	 34.750480	-3.061831	-8.324415	 25.112130	-7.717108	-5.827821	 10.202350	 6.437017	 35.671460	-0.771858	 2.830251	 35.756010	-7.813440	-2.350882	 35.473990	 5.254307
 2.940599	-0.023123	-0.151996	 70.477840	-1.914062	-1.306762	 7.462648	 22.539700	-177.189000	-3.384264	-11.623270	 1.544058	 4.272763	 84.356250	-0.600470	-2.268037	 42.432590	-0.342883	 5.213884	-36.069310	-177.479000	-0.183222	-38.729970	 3.809083	 151.541600	 89.445390	-146.311500	 2.362168	 32.519680	 0.092116	 33.028270	 3.288235	 2.128011	-1.217082	-1.648440	 0.683613	-1.188514	-4.121820	-0.681996	-91.776180	 78.527400	 180.000000	 36.444800	 60.608430	-54.809560	-5.434919	-8.204023	-41.469130	-1.403041	-6.790202	-5.975004	-3.812334	 37.924440	-2.927599	-2.450526	 36.184240	 0.754587	-1.378229	 35.397820	-2.634230	 1.228896	 2.130486	-5.000372	 1.042098	-9.313151	 3.979486	 89.782120	 78.203870	 180.000000	-36.642090	 72.782690	 33.920360	-4.088351	-8.842951	 25.655460	-8.506102	-7.549190	 10.278230	 6.437017	 35.671460	-0.771858	 2.830251	 35.756010	-7.813440	-2.350882	 35.473990	 5.254307
 2.961483	-0.031637	-0.152773	 70.687750	-1.919465	-1.321112	 7.576948	 23.481680	-177.485100	-3.208586	-11.617650	 1.586369	 4.607452	 84.106580	-0.719545	-2.248743	 43.810210	-0.382948	 5.102350	-36.031540	-177.407400	-0.193303	-37.977670	 3.659795	 153.034600	 89.362040	-147.842400	 2.360471	 32.776600	 0.098042	 31.872680	 3.244228	 2.024328	-1.250173	-1.684302	 0.617656	-1.176378	-4.145783	-0.708334	-91.776180	 78.527400	-180.000000	 36.844150	 60.793930	-55.110710	-4.879188	-8.850906	-42.322290	-0.943468	-8.005100	-6.006406	-3.812334	 37.924440	-2.927599	-2.450526	 36.184240	 0.754587	-1.378229	 35.397820	-2.634230	 1.240177	 2.090293	-5.018052	 1.062636	-9.323856	 4.180556	 89.782100	 78.203850	-180.000000	-36.159380	 73.026590	 33.385200	-4.828182	-9.209696	 26.009090	-9.062698	-8.801266	 10.312350	 6.437017	 35.671460	-0.771858	 2.830251	 35.756010	-7.813440	-2.350882	 35.473990	 5.254307
 2.988359	-0.042970	-0.153732	 70.951040	-1.964222	-1.323572	 7.754907	 24.689600	-177.964800	-2.889634	-11.608250	 1.654536	 5.044652	 83.510070	-0.794592	-2.226071	 45.283900	-0.427602	 4.940290	-35.821610	-177.452700	 0.118825	-37.766690	 3.753959	 150.327300	 89.418850	-144.973100	 2.362238	 32.509460	 0.091875	 30.295060	 3.198897	 1.923223	-1.285593	-1.712229	 0.522529	-1.145849	-4.134975	-0.743520	-91.776180	 78.527420	-180.000000	 37.495440	 61.092980	-55.555260	-4.187729	-9.643504	-43.182090	-0.366818	-9.569655	-6.018705	-3.812334	 37.924440	-2.927599	-2.450526	 36.184240	 0.754587	-1.378229	 35.397820	-2.634230	 1.270570	 2.076555	-5.036242	 1.100829	-9.340195	 4.402458	 89.782120	 78.203930	 180.000000	-35.656330	 73.286240	 32.831490	-5.783158	-9.672313	 26.436070	-9.754944	-10.411470	 10.330760	 6.437017	 35.671460	-0.771858	 2.830251	 35.756010	-7.813440	-2.350882	 35.473990	 5.254307
 3.015716	-0.054866	-0.154712	 71.210920	-2.023327	-1.322403	 7.962421	 25.904790	-178.538300	-2.486607	-11.596710	 1.734153	 5.455467	 82.577780	-0.764869	-2.205029	 46.536060	-0.467138	 4.870024	-35.474980	-177.534400	 0.569939	-38.143150	 4.055440	 133.094300	 89.647780	-127.437900	 2.367613	 31.653520	 0.072309	 28.585930	 3.151023	 1.874682	-1.318270	-1.719514	 0.417976	-1.098222	-4.066346	-0.783460	-91.776180	 78.527400	 180.000000	 38.227500	 61.469200	-55.888310	-3.507157	-10.392750	-43.830140	 0.186009	-11.165030	-5.999017	-3.812334	 37.924440	-2.927599	-2.450526	 36.184240	 0.754587	-1.378229	 35.397820	-2.634230	 1.321823	 2.144035	-5.067727	 1.148521	-9.386665	 4.611174	 89.782100	 78.203870	-180.000000	-35.284030	 73.495030	 32.425460	-6.754217	-10.138260	 26.858870	-10.431680	-12.050380	 10.320510	 6.437017	 35.671460	-0.771858	 2.830251	 35.756010	-7.813440	-2.350882	 35.473990	 5.254307
 3.043709	-0.067277	-0.155650	 71.476180	-2.089605	-1.303974	 8.200117	 27.109830	-179.200200	-2.068609	-11.585080	 1.811180	 5.751851	 81.287920	-0.606461	-2.180547	 47.873950	-0.511214	 4.828892	-34.853240	-177.673300	 1.078802	-38.938770	 4.475550	 68.046410	 89.753720	-62.049560	 2.374210	 30.505660	 0.046478	 26.739240	 3.077708	 1.849609	-1.356355	-1.721129	 0.302422	-1.034433	-3.959123	-0.834023	-91.776180	 78.527400	-180.000000	 39.005500	 61.922670	-56.078380	-2.819639	-11.102880	-44.265820	 0.737336	-12.755330	-5.949742	-3.812334	 37.924440	-2.927599	-2.450526	 36.184240	 0.754587	-1.378229	 35.397820	-2.634230	 1.388715	 2.287694	-5.111488	 1.204379	-9.467665	 4.810052	 89.782090	 78.203830	-180.000000	-34.863600	 73.679480	 31.958260	-7.692174	-10.611970	 27.293780	-11.088420	-13.710320	 10.280690	 6.437017	 35.671460	-0.771858	 2.830251	 35.756010	-7.813440	-2.350882	 35.473990	 5.254307
 3.075509	-0.081604	-0.156819	 71.796910	-2.160272	-1.261331	 8.503086	 28.422140	 179.937400	-1.607837	-11.573170	 1.886736	 5.891911	 79.373700	-0.248651	-2.148130	 49.483680	-0.566960	 4.669247	-34.033040	-177.932900	 1.895369	-40.127940	 5.101097	 19.814880	 89.415500	-13.355090	 2.378920	 29.604750	 0.026528	 24.500760	 2.950080	 1.807892	-1.415145	-1.727308	 0.164991	-0.948478	-3.816096	-0.909345	-91.776180	 78.527400	-180.000000	 39.905600	 62.517190	-56.122300	-2.008626	-11.862300	-44.496490	 1.395559	-14.583230	-5.849538	-3.812334	 37.924440	-2.927599	-2.450526	 36.184240	 0.754587	-1.378229	 35.397820	-2.634230	 1.470125	 2.498933	-5.131386	 1.269542	-9.546072	 4.973886	 89.782120	 78.203870	 180.000000	-34.138160	 73.863850	 31.062790	-8.694345	-11.157350	 27.812350	-11.793840	-15.582500	 10.200280	 6.437017	 35.671460	-0.771858	 2.830251	 35.756010	-7.813440	-2.350882	 35.473990	 5.254307
